<?xml version="1.0" encoding="iso-8859-1"?>
<!-- Generator: Adobe Illustrator 16.0.0, SVG Export Plug-In . SVG Version: 6.00 Build 0)  -->
<!DOCTYPE svg PUBLIC "-//W3C//DTD SVG 1.1//EN" "http://www.w3.org/Graphics/SVG/1.1/DTD/svg11.dtd">
<svg version="1.1" id="Capa_1" xmlns="http://www.w3.org/2000/svg" xmlns:xlink="http://www.w3.org/1999/xlink" x="0px" y="0px"
	 width="612px" height="612px" viewBox="0 0 612 612" style="enable-background:new 0 0 612 612;" xml:space="preserve">
<g>
	<g>
		<path d="M306,444.637c-76.438,0-138.665-62.199-138.665-138.637S229.535,167.363,306,167.363
			c76.438,0,138.637,62.199,138.637,138.637S382.438,444.637,306,444.637z M306,189.595c-64.198,0-116.46,52.235-116.46,116.432
			c0,64.198,52.235,116.433,116.46,116.433c64.197,0,116.433-52.234,116.433-116.433C422.433,241.83,370.197,189.595,306,189.595z"
			/>
		<path d="M301.67,612c-14.933,0-27.089-12.156-27.089-27.089v-95.866c0-14.933,12.157-27.089,27.089-27.089
			c14.904,0,27.034,12.156,27.034,27.089v95.866C328.704,599.844,316.574,612,301.67,612z M301.67,484.16
			c-2.692,0-4.885,2.192-4.885,4.885v95.866c0,5.356,9.715,5.412,9.742,0v-95.866C306.5,486.353,304.334,484.16,301.67,484.16z"/>
		<path d="M301.67,150.044c-14.933,0-27.089-12.157-27.089-27.089V27.089C274.581,12.157,286.738,0,301.67,0
			c14.904,0,27.034,12.157,27.034,27.089v95.866C328.704,137.887,316.574,150.044,301.67,150.044z M301.67,22.204
			c-2.692,0-4.885,2.192-4.885,4.885v95.866c0,5.357,9.715,5.412,9.742,0V27.089C306.5,24.396,304.334,22.204,301.67,22.204z"/>
		<path d="M584.911,333.089h-95.866c-14.933,0-27.062-12.156-27.062-27.089c0-14.932,12.157-27.089,27.062-27.089h95.866
			C599.844,278.911,612,291.068,612,306C612,320.933,599.844,333.089,584.911,333.089z M489.045,301.115
			c-2.692,0-4.857,2.192-4.857,4.885s2.193,4.885,4.857,4.885h95.866c2.692,0,4.885-2.192,4.885-4.885s-2.192-4.885-4.885-4.885
			H489.045z"/>
		<path d="M122.955,333.089H27.089C12.157,333.089,0,320.933,0,306c0-14.932,12.157-27.089,27.089-27.089h95.866
			c14.932,0,27.089,12.157,27.089,27.089C150.044,320.933,137.887,333.089,122.955,333.089z M27.089,301.115
			c-2.692,0-4.885,2.192-4.885,4.885s2.193,4.885,4.885,4.885h95.866c2.692,0,4.885-2.192,4.885-4.885s-2.192-4.885-4.885-4.885
			H27.089z"/>
		<path d="M88.261,531.594L88.261,531.594c-7.244,0-14.016-2.831-19.123-7.938c-5.135-5.106-7.966-11.906-7.966-19.15
			s2.831-14.045,7.966-19.151l67.778-67.778c10.158-10.214,28.033-10.214,38.274,0c10.547,10.575,10.547,27.756,0.027,38.303
			l-67.806,67.777C102.305,528.763,95.505,531.594,88.261,531.594z M156.039,431.842c-0.749,0-2.192,0.194-3.414,1.415
			L84.82,501.035c-1.249,1.249-1.443,2.72-1.443,3.47c0,0.749,0.167,2.22,1.443,3.469c2.47,2.471,4.385,2.498,6.883,0l67.833-67.777
			c1.888-1.888,1.888-4.996,0-6.911C158.287,432.036,156.789,431.842,156.039,431.842z"/>
		<path d="M427.54,195.424L427.54,195.424c-7.244,0-14.045-2.803-19.151-7.91c-10.547-10.575-10.547-27.755,0-38.33l67.833-67.806
			c10.187-10.214,28.061-10.214,38.274,0c5.107,5.107,7.91,11.879,7.91,19.123c0,7.244-2.803,14.044-7.938,19.151l-67.778,67.806
			C441.584,192.621,434.783,195.424,427.54,195.424z M495.346,95.672c-0.75,0-2.193,0.194-3.414,1.416l-67.834,67.806
			c-1.887,1.915-1.887,5.024,0,6.939c2.442,2.442,4.413,2.442,6.911,0l67.778-67.806c1.221-1.249,1.415-2.692,1.415-3.47
			c0-0.777-0.194-2.22-1.415-3.441C497.538,95.866,496.095,95.672,495.346,95.672z"/>
		<path d="M497.371,546.221c-7.244,0-14.044-2.831-19.15-7.938l-67.778-67.806c-5.106-5.106-7.938-11.907-7.938-19.123
			c0-7.217,2.803-14.044,7.91-19.151c10.241-10.214,28.088-10.214,38.302,0l67.778,67.834c5.134,5.106,7.965,11.907,7.965,19.123
			s-2.831,14.044-7.938,19.151C511.416,543.417,504.615,546.221,497.371,546.221z M429.594,446.469c-0.75,0-2.221,0.194-3.47,1.415
			c-1.609,1.61-1.638,5.246,0,6.884l67.778,67.806c2.498,2.498,4.44,2.498,6.938,0c1.222-1.222,1.415-2.665,1.415-3.414
			s-0.193-2.192-1.442-3.441l-67.806-67.834C431.813,446.663,430.343,446.469,429.594,446.469z"/>
		<path d="M159.12,208.024c-7.244,0-14.044-2.831-19.151-7.938l-67.778-67.806c-5.107-5.107-7.938-11.907-7.938-19.151
			c0-7.216,2.803-14.017,7.91-19.151c10.242-10.214,28.088-10.241,38.302,0l67.778,67.778c10.547,10.547,10.547,27.727,0,38.274
			C173.192,205.193,166.364,208.024,159.12,208.024z M91.342,108.245c-0.749,0-2.22,0.194-3.469,1.415
			c-1.61,1.638-1.638,5.246,0,6.884l67.778,67.806c2.498,2.498,4.441,2.498,6.911,0c1.915-1.888,1.915-4.996,0-6.911l-67.778-67.75
			C93.535,108.439,92.091,108.245,91.342,108.245z"/>
	</g>
</g>
<g>
</g>
<g>
</g>
<g>
</g>
<g>
</g>
<g>
</g>
<g>
</g>
<g>
</g>
<g>
</g>
<g>
</g>
<g>
</g>
<g>
</g>
<g>
</g>
<g>
</g>
<g>
</g>
<g>
</g>
</svg>
